<?xml version="1.0" encoding="UTF-8"?>
<svg width="200" height="200" viewBox="0 0 200 200" version="1.1" xmlns="http://www.w3.org/2000/svg">
    <!-- Tilted Sun -->
    <g transform="rotate(15 100 100)">
        <circle cx="100" cy="100" r="38" fill="#FFB800"/>
        <!-- Dynamic Rays -->
        <g transform="translate(100 100)">
            <!-- 10 rays with varying lengths -->
            <polygon points="0,-75 6,-58 -6,-58" fill="#FFC926" transform="rotate(0)"/>
            <polygon points="0,-65 5,-50 -5,-50" fill="#FFC926" transform="rotate(36)"/>
            <polygon points="0,-70 5,-55 -5,-55" fill="#FFC926" transform="rotate(72)"/>
            <polygon points="0,-80 6,-62 -6,-62" fill="#FFC926" transform="rotate(108)"/>
            <polygon points="0,-65 5,-50 -5,-50" fill="#FFC926" transform="rotate(144)"/>
            <polygon points="0,-75 6,-58 -6,-58" fill="#FFC926" transform="rotate(180)"/>
            <polygon points="0,-70 5,-55 -5,-55" fill="#FFC926" transform="rotate(216)"/>
            <polygon points="0,-80 6,-62 -6,-62" fill="#FFC926" transform="rotate(252)"/>
            <polygon points="0,-65 5,-50 -5,-50" fill="#FFC926" transform="rotate(288)"/>
            <polygon points="0,-70 5,-55 -5,-55" fill="#FFC926" transform="rotate(324)"/>
        </g>
    </g>
    <!-- Minimal Cloud -->
    <path d="M150,140 C170,140 180,130 180,120 C180,110 170,100 160,100 C160,90 150,80 140,80 C130,80 120,90 120,100 C110,95 100,100 100,110 C100,120 110,130 120,130 L150,140 Z" fill="#D8E1E9"/>
</svg>