<?xml version="1.0" encoding="UTF-8"?>
<svg width="200" height="200" viewBox="0 0 200 200" version="1.1" xmlns="http://www.w3.org/2000/svg">
    <!-- Simplified sun with fewer, bolder rays -->
    <circle cx="100" cy="95" r="30" fill="#FFB800"/>
    <!-- 6 bold rays -->
    <g transform="translate(100 95)">
        <rect x="-4" y="-65" width="8" height="25" fill="#FFB800" transform="rotate(0)"/>
        <rect x="-4" y="-65" width="8" height="25" fill="#FFB800" transform="rotate(60)"/>
        <rect x="-4" y="-65" width="8" height="25" fill="#FFB800" transform="rotate(120)"/>
        <rect x="-4" y="-65" width="8" height="25" fill="#FFB800" transform="rotate(180)"/>
        <rect x="-4" y="-65" width="8" height="25" fill="#FFB800" transform="rotate(240)"/>
        <rect x="-4" y="-65" width="8" height="25" fill="#FFB800" transform="rotate(300)"/>
    </g>
    <!-- Minimal cloud with smoother curves -->
    <path d="M150,125 C165,125 175,115 175,105 C175,95 165,85 155,85 C155,75 145,65 135,65 C125,65 115,75 115,85 C105,80 95,85 95,95 C95,105 105,115 115,115 Z" fill="#D8E1E9"/>
</svg>