<?xml version="1.0" encoding="UTF-8"?>
<svg width="200" height="200" viewBox="0 0 200 200" version="1.1" xmlns="http://www.w3.org/2000/svg">
    <!-- Large cloud with more detail -->
    <path d="M150,140 C170,140 180,130 180,120 C180,110 170,100 160,100 C160,90 150,80 140,80 C130,80 120,90 120,100 C110,95 100,100 100,110 C100,120 110,130 120,130 L150,140 Z" fill="#D8E1E9"/>
    <!-- Small cloud with shadow -->
    <path d="M85,115 C95,115 100,110 100,105 C100,100 95,95 90,95 C90,90 85,85 80,85 C75,85 70,90 70,95 C65,93 60,95 60,100 C60,105 65,110 70,110 L85,115 Z" fill="#B8C6DB"/>
    <!-- Small cloud main layer -->
    <path d="M85,110 C95,110 100,105 100,100 C100,95 95,90 90,90 C90,85 85,80 80,80 C75,80 70,85 70,90 C65,88 60,90 60,95 C60,100 65,105 70,105 L85,110 Z" fill="#D8E1E9"/>
</svg>