<svg width="18" height="29" viewBox="0 0 18 29" fill="none" xmlns="http://www.w3.org/2000/svg">
  <circle cx="9.00031" cy="16" r="7.03238" transform="rotate(12.6592 9.00031 16)" stroke="#5F4DEA"/>
  <path d="M9.6429 16.4544C8.47803 18.068 7.19626 19.3377 6.08111 20.0919C5.52177 20.4702 5.0275 20.703 4.6282 20.7974C4.22712 20.8923 3.987 20.8349 3.84689 20.7338C3.70679 20.6327 3.57679 20.4228 3.54056 20.0122C3.5045 19.6035 3.56989 19.0611 3.75289 18.4111C4.11773 17.1152 4.91943 15.4989 6.0843 13.8853C7.24918 12.2718 8.53095 11.002 9.64609 10.2478C10.2054 9.86954 10.6997 9.63672 11.099 9.5423C11.5001 9.44745 11.7402 9.50478 11.8803 9.60592C12.0204 9.70707 12.1504 9.91694 12.1866 10.3275C12.2227 10.7362 12.1573 11.2786 11.9743 11.9286C11.6095 13.2245 10.8078 14.8408 9.6429 16.4544Z" stroke="#5F4DEA"/>
  <path d="M7.97388 17.0813C6.46834 15.6895 5.26494 14.2824 4.53324 13.1421C4.16531 12.5687 3.93254 12.0871 3.83064 11.7244C3.77986 11.5436 3.76815 11.415 3.77477 11.3314C3.77793 11.2914 3.78487 11.2671 3.78993 11.2542C3.79458 11.2423 3.79813 11.2386 3.79881 11.2379L3.79884 11.2378C3.79959 11.237 3.8031 11.2332 3.81441 11.2277C3.82687 11.2217 3.85051 11.2128 3.89015 11.2066C3.97296 11.1934 4.1021 11.195 4.28632 11.2314C4.65592 11.3046 5.15427 11.4988 5.75477 11.8207C6.94898 12.4607 8.44617 13.55 9.95172 14.9417C11.4573 16.3334 12.6607 17.7406 13.3924 18.8809C13.7603 19.4543 13.9931 19.9359 14.095 20.2986C14.1457 20.4794 14.1574 20.608 14.1508 20.6916C14.1477 20.7316 14.1407 20.7559 14.1357 20.7688C14.1311 20.7805 14.1276 20.7843 14.1268 20.7851L14.1268 20.7851L14.1268 20.7852C14.126 20.786 14.1225 20.7898 14.1112 20.7953C14.0987 20.8013 14.0751 20.8101 14.0355 20.8164C13.9526 20.8296 13.8235 20.828 13.6393 20.7916C13.2697 20.7184 12.7713 20.5241 12.1708 20.2023C10.9766 19.5623 9.47942 18.473 7.97388 17.0813Z" stroke="#5F4DEA"/>
</svg>
